<svg width="430" height="218" viewBox="0 0 430 218" fill="none" xmlns="http://www.w3.org/2000/svg">
<path d="M57.1818 163V154.818L107.364 79.9091H56.6364V69.9091H120.818V78.0909L70.6364 153H121.364V163H57.1818ZM168.091 164.455C161.364 164.455 155.561 162.97 150.682 160C145.833 157 142.091 152.818 139.455 147.455C136.848 142.061 135.545 135.788 135.545 128.636C135.545 121.485 136.848 115.182 139.455 109.727C142.091 104.242 145.758 99.9697 150.455 96.9091C155.182 93.8182 160.697 92.2727 167 92.2727C170.636 92.2727 174.227 92.8788 177.773 94.0909C181.318 95.303 184.545 97.2727 187.455 100C190.364 102.697 192.682 106.273 194.409 110.727C196.136 115.182 197 120.667 197 127.182V131.727H143.182V122.455H186.091C186.091 118.515 185.303 115 183.727 111.909C182.182 108.818 179.97 106.379 177.091 104.591C174.242 102.803 170.879 101.909 167 101.909C162.727 101.909 159.03 102.97 155.909 105.091C152.818 107.182 150.439 109.909 148.773 113.273C147.106 116.636 146.273 120.242 146.273 124.091V130.273C146.273 135.545 147.182 140.015 149 143.682C150.848 147.318 153.409 150.091 156.682 152C159.955 153.879 163.758 154.818 168.091 154.818C170.909 154.818 173.455 154.424 175.727 153.636C178.03 152.818 180.015 151.606 181.682 150C183.348 148.364 184.636 146.333 185.545 143.909L195.909 146.818C194.818 150.333 192.985 153.424 190.409 156.091C187.833 158.727 184.652 160.788 180.864 162.273C177.076 163.727 172.818 164.455 168.091 164.455ZM224.045 121V163H213.318V93.1818H223.682V104.091H224.591C226.227 100.545 228.712 97.697 232.045 95.5455C235.379 93.3636 239.682 92.2727 244.955 92.2727C249.682 92.2727 253.818 93.2424 257.364 95.1818C260.909 97.0909 263.667 100 265.636 103.909C267.606 107.788 268.591 112.697 268.591 118.636V163H257.864V119.364C257.864 113.879 256.439 109.606 253.591 106.545C250.742 103.455 246.833 101.909 241.864 101.909C238.439 101.909 235.379 102.652 232.682 104.136C230.015 105.621 227.909 107.788 226.364 110.636C224.818 113.485 224.045 116.939 224.045 121Z" fill="white"/>
<path d="M288.75 161.664V66.3359L371.942 114L288.75 161.664Z" stroke="white" stroke-width="10"/>
<line x1="299" y1="75.9969" x2="299" y2="156.003" stroke="white" stroke-width="5"/>
<line x1="307.883" y1="73.9972" x2="308" y2="152.997" stroke="white" stroke-width="4"/>
</svg>
